<?xml version="1.0" encoding="UTF-8"?>
<svg id="Layer_1" xmlns="http://www.w3.org/2000/svg" version="1.1" viewBox="0 0 841.9 595.3">
  <!-- Generator: Adobe Illustrator 30.4.0, SVG Export Plug-In . SVG Version: 2.1.4 Build 226)  -->
  <defs>
    <style>
      .st0, .st1 {
        fill: #6e2d19;
      }

      .st1 {
        font-family: PauzaFOT-Book, PauzaFOT;
        font-size: 54px;
      }
    </style>
  </defs>
  <g>
    <rect class="st0" x="30.4" y="226.8" width="250" height="20.5" transform="translate(-88.4 381.6) rotate(-87.4)"/>
    <rect class="st0" x="202.2" y="124.1" width="20.5" height="162.6" transform="translate(-83 201.8) rotate(-43.3)"/>
    <rect class="st0" x="258.8" y="109.2" width="20.5" height="252.7"/>
    <rect class="st0" x="221.8" y="245.3" width="208.3" height="20.5" transform="translate(67.4 579.1) rotate(-89.5)"/>
    <rect class="st0" x="348.1" y="322.4" width="20.5" height="92.2" transform="translate(-84.2 629.9) rotate(-76.4)"/>
    <rect class="st0" x="328.6" y="238" width="116" height="20.5" transform="translate(-18.7 31.9) rotate(-4.6)"/>
    <rect class="st0" x="316.5" y="147.2" width="145.1" height="20.5"/>
    <rect class="st0" x="539.8" y="235.8" width="254.7" height="20.5" transform="translate(272.1 837.3) rotate(-76.5)"/>
    <rect class="st0" x="615" y="116.1" width="159.6" height="20.5" transform="translate(-11 103.1) rotate(-8.4)"/>
    <polygon class="st0" points="504.3 393.8 424.5 339.5 436 322.6 498.2 364.9 556 272.4 478 253.6 492.5 177.7 607 153.5 611.2 173.6 510 194.9 501.8 238.2 588.4 259.1 504.3 393.8"/>
  </g>
  <text class="st1" transform="translate(110.6 458.4)"><tspan x="0" y="0">Built for your next chapter</tspan></text>
</svg>